<svg width="469" height="537" viewBox="0 0 469 537" fill="none" xmlns="http://www.w3.org/2000/svg">
<rect width="469" height="537" fill="white" fill-opacity="0.01"/>
<g filter="url(#filter0_d_1_2)">
<path d="M226.5 276.562C244.562 276.562 265 266.5 278.5 238.5C281.78 237.166 284.909 234.164 287.5 232C296.384 225.855 296 219.5 294 211.5C289.5 202.5 282 200.911 278.5 202C272.812 203.77 273.689 202.291 273 202C241 188.5 224.5 179.014 213 150C212.953 150.274 213.048 149.729 213 150C213 180 254 207.5 273 207.5C292 207.5 281.5 206.167 284.5 207.5C289 209.5 293 219 287.5 224C282 229 282.5 225.5 273 238.5C263.5 251.5 260 262 237 270.5C230.075 273.059 223 275.5 223 275.5C223 275.5 222.5 289 222.5 291.5C222.5 294 224.5 294.5 224.5 294.5L225.5 295C225 303.5 223.535 307.638 215 307C217.806 309.142 222.694 308.142 225.5 306C232.12 300.947 229 293.5 229 293C229 292.5 226 291.5 226 291.5L226.5 276.562Z" fill="#E7BFBC"/>
<path d="M161.5 237C165 247.5 183 274 212 275.5V285V293.5C210.914 293.679 211 293.5 210 294.5C209 295.5 210.5 304.5 215 307C223.535 307.638 225 303.5 225.5 295L224.5 294.5C224.5 294.5 222.5 294 222.5 291.5C222.5 289 223 275.5 223 275.5C223 275.5 230.075 273.059 237 270.5C260 262 263.5 251.5 273 238.5C282.5 225.5 282 229 287.5 224C293 219 289 209.5 284.5 207.5C281.5 206.167 292 207.5 273 207.5C254 207.5 213 180 213 150C207.149 183.118 192.299 198.944 153.5 215.5C153.5 215.5 149 216 149 224C149 232 161 235.5 161.5 237Z" fill="#FAE9E8"/>
</g>
<ellipse cx="197.5" cy="216.5" rx="5.5" ry="9.5" fill="#131111"/>
<ellipse cx="243.5" cy="216.5" rx="5.5" ry="9.5" fill="#131111"/>
<g filter="url(#filter1_d_1_2)">
<ellipse cx="178" cy="237" rx="11" ry="14" transform="rotate(-90 178 237)" fill="#FFC0BC"/>
</g>
<g filter="url(#filter2_d_1_2)">
<ellipse cx="258" cy="233" rx="11" ry="14" transform="rotate(-90 258 233)" fill="#FFC0BC"/>
</g>
<path d="M106.006 306.112C106.006 306.112 95.0056 318.112 84.0056 343.612C73.0056 369.112 81.0056 389.612 99.5056 396.112C118.006 402.612 128.94 399.826 143.506 391.612C141.586 391.868 139.256 390.098 137.506 390.297C120.192 392.269 112.669 391.288 101.006 384.112C86.154 371.665 86.9636 359.561 93.5056 335.112L106.006 306.112Z" fill="black"/>
<path d="M129.006 209.612C129.006 209.612 103.006 233.612 99.5056 256.612C98.0015 266.496 100.213 275.395 101.515 284.612C102.408 269.275 109.506 247.112 109.506 247.112C109.506 247.112 120.742 221.096 129.006 209.612Z" fill="#252323"/>
<path d="M218.506 106.112C218.506 106.112 200.506 101.612 183.006 106.112C165.506 110.612 139.006 132.112 127.506 166.612C116.006 201.112 129.006 209.612 129.006 209.612C128.82 194.285 129.867 189.889 130.966 185.28C130.979 185.224 130.992 185.168 131.006 185.112C132.205 180.075 133.653 174.731 139.506 157.612C150.788 124.612 184.506 112.112 184.506 112.112C184.506 112.112 201.723 106.455 218.506 106.112Z" fill="black"/>
<path d="M257.506 99.1118C242.506 94.1118 223.506 98.6118 218.506 106.112C201.723 106.455 184.506 112.112 184.506 112.112C191.884 109.943 187 111.354 191 110.262C191.043 110.278 197 108.845 200.5 109.5C209.363 109.5 212.167 109.934 218.506 112.112C224.437 109.085 229.454 107.198 233.972 106.112C243.221 103.889 250.379 105.024 259.006 106.612C271.359 108.997 278.097 114.754 290.006 127.612C301.366 146.461 303.731 153.816 307.879 166.719L308.006 167.112L312.006 193.612C312.006 193.612 311 168.5 310.5 166C310.5 166 310 162 308.006 153.112C301.736 132.754 291.17 110.333 257.506 99.1118Z" fill="#121212"/>
<path d="M334.006 295.612C334.006 295.612 338.366 264.027 334.006 241.5C329.645 218.973 325.54 220.585 322.506 213.112C322.738 214.204 323.243 216.025 323.753 217.867C324.245 219.641 324.742 221.433 325.006 222.612C327.434 230.194 331.592 242.994 332 250.5C332.516 260 332.314 257.947 332.516 264.027C332.833 273.551 333.2 284.586 333.506 286.112C334.006 288.612 334.087 294.112 334.006 295.612Z" fill="black"/>
<path d="M161.506 239.112C161.367 238.695 161.84 236.047 160.429 235.156C155.989 246.882 154.319 253.17 155.006 263.112C157.532 276.616 158.805 281.031 161.018 287.612C163.495 293.897 164.484 301.541 157.506 313.112C154.612 324.695 156.002 327.802 161.018 338.112C160.972 337.98 160.926 337.849 160.881 337.719C160.806 337.506 160.732 337.295 160.658 337.087C160.656 337.08 160.653 337.072 160.65 337.064L160.648 337.059C158.553 331.105 157.27 327.46 160.429 320.612C165.053 312.344 167.445 307.527 168.02 295.612C164.696 285.168 164.184 279.141 165.506 268.112C166.316 264.563 166.835 260.916 168.02 247.112C165.55 243.255 162.376 241.723 161.506 239.112Z" fill="#111010"/>
<path d="M282.464 234.028C281.342 234.326 278.684 236.633 277.506 237.112C274.42 243.512 272.367 247.155 268.506 252.052C268.506 252.052 269.506 254.612 266.506 268.112C263.605 281.164 270.519 288.607 274.322 292.702L274.466 292.857C274.547 292.943 274.625 293.028 274.703 293.112C276.519 295.077 281.328 303.917 285.753 312.049C290.336 320.474 294.506 328.138 294.506 326.612C294.506 325.639 292.296 321.193 289.344 315.254C283.196 302.886 273.83 284.043 274.506 276.612C275.119 269.859 275.733 267.629 276.694 264.137C277.299 261.941 278.04 259.246 279.006 254.612C281.506 242.612 282.464 234.028 282.464 234.028Z" fill="black"/>
<path d="M137.506 390.297C139.256 390.098 141.586 391.868 143.506 391.612C149.307 397.333 154.849 397.785 160.199 399.377C160.339 399.418 161.51 399.692 162.632 399.955C163.648 400.193 164.625 400.421 164.758 400.459C164.287 399.987 162.873 399.375 161.467 398.767C160.154 398.2 158.849 397.635 158.323 397.19C156.201 395.394 154.198 393.698 152.506 390.297C148.932 383.115 148.882 377.264 148.82 370.106C148.795 367.213 148.768 364.106 148.506 360.612V374.112C148.81 381.558 143.006 389.612 137.506 390.297Z" fill="black"/>
<path d="M342.006 386.112C353.506 375.112 361.506 364.112 360.006 342.612C359.827 343.568 359.662 344.483 359.502 345.368C357.906 354.227 356.873 359.963 348.006 372.112C347.346 372.692 346.708 373.256 346.09 373.803C338.836 380.22 334.226 384.298 327.483 384.112C321.468 383.407 318.367 382.546 313.899 379.2L308.006 379.612C306.911 377.917 307.633 375.272 306.432 377.357C306.019 378.441 305.547 379.497 305.006 380.563C299.362 392.767 292.325 394.847 279.006 397.612C279.006 397.612 298.006 398.612 303.506 396.112C305.235 395.326 308.449 395.133 312.399 394.896C321.01 394.379 334.122 393.652 342.006 386.112Z" fill="black"/>
<path d="M308.006 379.612L313.899 379.2C309.291 372.444 308.928 367.711 309.247 361.085C308.753 368.493 308.037 373.143 306.432 377.357C307.633 375.272 306.911 377.917 308.006 379.612Z" fill="black"/>
<path fill-rule="evenodd" clip-rule="evenodd" d="M308.006 167.112L312.006 193.612C312.006 193.612 315.926 196.909 322.506 213.112C322.738 214.204 323.243 216.025 323.753 217.867C324.245 219.641 324.742 221.433 325.006 222.612C327.434 230.194 331.592 242.994 332 250.5C332.516 260 332.314 257.947 332.516 264.027C332.833 273.551 333.2 284.586 333.506 286.112C334.006 288.612 334.087 294.112 334.006 295.612C351.75 306.879 358.506 321.112 360.006 342.612C359.827 343.568 359.662 344.483 359.502 345.368C357.906 354.227 356.873 359.963 348.006 372.112C347.346 372.692 346.708 373.256 346.09 373.803C338.836 380.22 334.226 384.298 327.483 384.112C321.468 383.407 318.367 382.546 313.899 379.2C309.291 372.444 308.928 367.711 309.247 361.085C308.753 368.493 308.037 373.143 306.432 377.357C306.019 378.441 305.547 379.497 305.006 380.563C299.362 392.767 292.325 394.847 279.006 397.612L268.506 368.612C274.181 368.518 277.654 368.33 290.006 365.112C287.506 340.612 277.006 328.456 266.506 317.612C250.027 300.593 239.005 296.612 225.006 293.112V276.612C238.939 276.612 255.476 268.578 268.506 252.052C268.506 252.052 269.506 254.612 266.506 268.112C263.605 281.164 270.519 288.607 274.322 292.702L274.466 292.857C274.547 292.943 274.625 293.028 274.703 293.112C276.519 295.077 281.328 303.917 285.753 312.049C290.336 320.474 294.506 328.138 294.506 326.612C294.506 325.639 292.296 321.193 289.344 315.254C283.196 302.886 273.83 284.043 274.506 276.612C275.119 269.859 275.733 267.629 276.694 264.137C277.299 261.941 278.04 259.246 279.006 254.612C281.506 242.612 282.464 234.028 282.464 234.028C284.464 233.498 286.345 232.999 288.006 231.612C296.89 225.466 296.506 219.112 294.506 211.112C290.006 202.112 282.506 200.523 279.006 201.612C274.88 202.896 274.734 203.522 274.703 203.659C274.701 203.665 274.7 203.671 274.698 203.676C274.697 203.679 274.696 203.682 274.694 203.683L274.692 203.686C274.683 203.691 274.665 203.683 274.619 203.662L274.583 203.646C274.562 203.636 274.536 203.625 274.506 203.612C242.506 190.112 226.646 182.063 214.364 151.112C208.512 184.23 193.804 198.056 155.006 214.612C155.006 214.612 150.506 215.112 150.506 223.112C150.506 228.889 156.764 232.841 160.429 235.156C155.989 246.882 154.319 253.17 155.006 263.112C157.532 276.616 158.805 281.031 161.018 287.612C163.495 293.897 164.484 301.541 157.506 313.112C154.612 324.695 156.002 327.802 161.018 338.112C160.972 337.98 160.926 337.849 160.881 337.719C160.806 337.506 160.732 337.295 160.658 337.087L160.65 337.064L160.648 337.059C158.553 331.105 157.27 327.46 160.429 320.612C165.053 312.344 167.445 307.527 168.02 295.612C164.696 285.168 164.184 279.141 165.506 268.112C166.316 264.563 166.835 260.916 168.02 247.112C175.484 258.766 190.217 273.384 212.006 274.511V284.612V293.112C199.123 298.873 195.506 301.612 182.506 317.612C169.506 333.612 154.031 363.243 160.506 365.112L161.018 365.26C167.173 367.038 170.779 368.08 180.006 368.612C176.502 382.887 172.675 389.356 165.506 400.612C165.253 400.56 165.004 400.509 164.758 400.459C164.287 399.987 162.873 399.375 161.467 398.767C160.154 398.2 158.849 397.635 158.323 397.19C156.201 395.394 154.198 393.698 152.506 390.297C148.932 383.115 148.882 377.264 148.82 370.106C148.795 367.213 148.768 364.106 148.506 360.612V374.112C148.81 381.558 143.006 389.612 137.506 390.297C120.192 392.269 112.669 391.288 101.006 384.112C86.154 371.665 86.9636 359.561 93.5056 335.112L106.006 306.112C106.006 306.112 103.241 296.843 101.515 284.612C102.408 269.275 109.506 247.112 109.506 247.112C109.506 247.112 120.742 221.096 129.006 209.612C128.82 194.285 129.867 189.889 130.966 185.28L131.006 185.112C132.205 180.075 133.653 174.731 139.506 157.612C150.788 124.612 184.506 112.112 184.506 112.112C191.884 109.943 187 111.354 191 110.262C191.043 110.278 197 108.845 200.5 109.5C208.289 112.259 211.467 114.148 213.034 117.978C213.412 118.904 213.821 119.904 214.364 121C216.115 113.601 223.865 110.042 233.972 106.112C243.221 103.889 250.379 105.024 259.006 106.612C271.359 108.997 278.097 114.754 290.006 127.612C301.366 146.461 303.731 153.816 307.879 166.719L308.006 167.112ZM164.758 400.459C164.633 400.424 163.753 400.218 162.798 399.995L162.794 399.994C161.626 399.721 160.347 399.421 160.199 399.377C160.339 399.418 161.51 399.692 162.632 399.955C163.648 400.193 164.625 400.421 164.758 400.459Z" fill="#473834"/>
<path d="M233.972 106.112C229.454 107.198 224.437 109.085 218.506 112.112C212.167 109.934 209.363 109.5 200.5 109.5C208.289 112.259 211.467 114.148 213.034 117.978C213.412 118.904 213.821 119.904 214.364 121C216.115 113.601 223.865 110.042 233.972 106.112Z" fill="#1D1C1C"/>
<path d="M171.5 231L169 239.5M179.5 231L177.5 239.5M185.5 231L183 239.5" stroke="#FF9995" stroke-width="5" stroke-linecap="round" stroke-linejoin="round"/>
<path d="M264 229L266.5 237.5M256 229L258 237.5M250 229L252.5 237.5" stroke="#FF9995" stroke-width="5" stroke-linecap="round" stroke-linejoin="round"/>
<path d="M221 227.5C220 231.5 219.5 231.5 220 232.5C220.5 233.5 222 234.5 222 234.5" stroke="#141313" stroke-width="2" stroke-linecap="round" stroke-linejoin="round"/>
<g filter="url(#filter3_d_1_2)">
<path fill-rule="evenodd" clip-rule="evenodd" d="M179.5 369C178.242 374.126 174.986 381.568 171.329 389C164.802 402.264 157 415.5 157 415.5C159.239 424.949 175.552 430.943 196.5 434C196.564 434.009 196.628 434.019 196.693 434.028C200.371 434.565 204.644 435.188 208.5 435.528C209.165 435.587 209.831 435.643 210.5 435.696C211.662 435.788 212.829 435.871 214 435.946C214.891 435.896 215.766 435.848 216.627 435.8C237.195 434.654 249.507 433.969 263 428C269.645 424.761 271.677 422.733 273.915 420.501C276.922 417.5 278.5 415.5 278.5 413.5C278.5 411.5 277.5 405 276 400.5C274.5 396 273.137 391.168 272 389C266.47 378.46 260.512 370.891 263 365.5C264.589 362.058 274.5 363 274.5 363C278.927 361.542 280.771 361.574 281.5 358C281.115 356.524 279.866 351.994 279.5 350.5C276.787 339.427 272.335 329.895 260 318C252.5 308.5 237.49 300.041 224.5 292C227 296 225 301 221.5 306C217 308.5 218 307.268 215.5 306C212.104 304.277 210.501 300.69 211.5 293.5C198.618 299.261 195 302 182 318C169 334 153.526 363.631 160 365.5C160.173 365.55 160.344 365.599 160.512 365.648C163.461 366.5 165.824 367.183 168.5 367.722C170.871 368.199 173.488 368.563 176.974 368.831C177.768 368.892 178.608 368.949 179.5 369Z" fill="#C2DDFF"/>
<path d="M289.5 418.5L275.04 385.208L274.95 385L274.573 384.133L268 369C269.78 368.971 271.541 368.932 273.5 368.793C274.296 368.737 275.124 368.664 276 368.569C279.842 368.151 284.597 367.298 291.5 365.5C289 341 282 330.344 271.5 319.5C255.021 302.481 239.465 292.887 224.5 292C237.49 300.041 252.5 308.5 260 318C272.335 329.895 276.787 339.427 279.5 350.5C279.866 351.994 281.115 356.524 281.5 358C280.771 361.574 278.927 361.542 274.5 363C274.5 363 264.589 362.058 263 365.5C260.512 370.891 266.47 378.46 272 389C273.137 391.168 274.5 396 276 400.5C277.5 405 278.5 411.5 278.5 413.5C278.5 415.5 276.922 417.5 273.915 420.501C271.677 422.733 269.645 424.761 263 428C249.507 433.969 237.195 434.654 216.627 435.8C215.766 435.848 214.891 435.896 214 435.946C221.304 436.415 228.758 436.553 236 436.365C236.334 436.357 236.667 436.348 237 436.338C240.92 436.22 244.773 436.006 248.5 435.697C249.142 435.643 249.78 435.587 250.414 435.528C273.14 433.419 290.712 427.688 289.5 418.5Z" fill="#72A0E0"/>
<path d="M176.974 368.831C173.488 368.563 170.871 368.199 168.5 367.722C166.465 376.153 165.992 378.673 165.5 382C165.183 383.991 165.382 385.444 165.829 386.5C166.919 387.445 167.511 387.741 168.5 387.5C170.678 385.527 171.86 384.254 173.5 380L173.566 379.84C174.968 376.413 175.779 374.432 176.974 368.831Z" fill="#FAE9E8"/>
<path d="M171.329 389C174.986 381.568 178.242 374.126 179.5 369C178.608 368.949 177.768 368.892 176.974 368.831C175.779 374.432 174.968 376.413 173.566 379.84L173.5 380C171.86 384.254 170.678 385.527 168.5 387.5C167.511 387.741 166.919 387.445 165.829 386.5C166.469 388.009 167.618 388.706 168.5 389C170 389.5 170.383 389.761 171.329 389Z" fill="#EABFBC"/>
<path d="M273.5 368.793C271.541 368.932 269.78 368.971 268 369L274.573 384.133C277 383.5 278 381.5 277.573 380.668C277.5 377.5 276.5 375 276 374C275.5 373 275.645 372.993 273.5 368.793Z" fill="#FAE9E8"/>
<path d="M279.5 380.5C279.544 374.973 278.669 373.554 276 368.569C275.124 368.664 274.296 368.737 273.5 368.793C275.645 372.993 275.5 373 276 374C276.5 375 277.5 377.5 277.573 380.668C278 381.5 277 383.5 274.573 384.133L274.95 385L275.04 385.208C275.22 385.246 275.5 385.5 277.5 383.5C279.5 381.5 278.92 381.679 279.5 380.5Z" fill="#EABFBC"/>
<path d="M211 448C211 443 211.11 440.128 210.5 435.696C209.831 435.643 209.165 435.587 208.5 435.528C208.873 442.077 209.063 445.656 208.5 447.5C207.625 449.756 207.106 451.01 205.5 453C202.893 454.709 201.147 454.871 197.801 454.5C198.305 455.405 199.001 456.223 200 457C200.5 457.389 204.603 457.5 205.5 457C208.414 455.376 210.5 453 211 448Z" fill="#EABFBC"/>
<path d="M237 436.338C236.237 444.196 236.5 446.5 236.5 449.5C236.5 451.233 236.667 452.132 237 452.872C239.12 454.438 239.5 455 242.5 454.5C245.5 454 246.512 452.456 248 450C248.635 448.145 248.894 446.911 249 444C248.956 441.162 248.817 439.264 248.5 435.697C244.773 436.006 240.92 436.22 237 436.338Z" fill="#FAE9E8"/>
<path d="M238 454.5C238.682 455.519 239.5 456 240.5 456.5C241.5 457 244 458 246 457C248 456 249.5 454 250.5 451.5C251.5 449 251.485 436.238 250.414 435.528C249.78 435.587 249.142 435.643 248.5 435.697C248.817 439.264 248.956 441.162 249 444C248.894 446.911 248.635 448.145 248 450C246.512 452.456 245.5 454 242.5 454.5C239.5 455 239.12 454.438 237 452.872C237.244 453.413 237.577 453.868 238 454.5Z" fill="#EABFBC"/>
<path d="M196.5 434C196.427 439.966 196.062 447 196.5 450C196.757 451.76 197.086 453.217 197.801 454.5C201.147 454.871 202.893 454.709 205.5 453C207.106 451.01 207.625 449.756 208.5 447.5C209.063 445.656 208.873 442.077 208.5 435.528C204.644 435.188 200.371 434.565 196.693 434.028L196.5 434Z" fill="#FAE9E8"/>
</g>
<path d="M211.5 249C219.116 255.701 223.384 256.054 231 249" stroke="#141313" stroke-width="3" stroke-linecap="round" stroke-linejoin="round"/>
<defs>
<filter id="filter0_d_1_2" x="147" y="147.922" width="154.179" height="166.269" filterUnits="userSpaceOnUse" color-interpolation-filters="sRGB">
<feFlood flood-opacity="0" result="BackgroundImageFix"/>
<feColorMatrix in="SourceAlpha" type="matrix" values="0 0 0 0 0 0 0 0 0 0 0 0 0 0 0 0 0 0 127 0" result="hardAlpha"/>
<feOffset dx="2" dy="2"/>
<feGaussianBlur stdDeviation="2"/>
<feComposite in2="hardAlpha" operator="out"/>
<feColorMatrix type="matrix" values="0 0 0 0 0 0 0 0 0 0 0 0 0 0 0 0 0 0 0.25 0"/>
<feBlend mode="normal" in2="BackgroundImageFix" result="effect1_dropShadow_1_2"/>
<feBlend mode="normal" in="SourceGraphic" in2="effect1_dropShadow_1_2" result="shape"/>
</filter>
<filter id="filter1_d_1_2" x="158" y="224" width="36" height="30" filterUnits="userSpaceOnUse" color-interpolation-filters="sRGB">
<feFlood flood-opacity="0" result="BackgroundImageFix"/>
<feColorMatrix in="SourceAlpha" type="matrix" values="0 0 0 0 0 0 0 0 0 0 0 0 0 0 0 0 0 0 127 0" result="hardAlpha"/>
<feOffset dx="-2" dy="2"/>
<feGaussianBlur stdDeviation="2"/>
<feComposite in2="hardAlpha" operator="out"/>
<feColorMatrix type="matrix" values="0 0 0 0 1 0 0 0 0 0.6 0 0 0 0 0.584314 0 0 0 1 0"/>
<feBlend mode="normal" in2="BackgroundImageFix" result="effect1_dropShadow_1_2"/>
<feBlend mode="normal" in="SourceGraphic" in2="effect1_dropShadow_1_2" result="shape"/>
</filter>
<filter id="filter2_d_1_2" x="242" y="220" width="36" height="30" filterUnits="userSpaceOnUse" color-interpolation-filters="sRGB">
<feFlood flood-opacity="0" result="BackgroundImageFix"/>
<feColorMatrix in="SourceAlpha" type="matrix" values="0 0 0 0 0 0 0 0 0 0 0 0 0 0 0 0 0 0 127 0" result="hardAlpha"/>
<feOffset dx="2" dy="2"/>
<feGaussianBlur stdDeviation="2"/>
<feComposite in2="hardAlpha" operator="out"/>
<feColorMatrix type="matrix" values="0 0 0 0 1 0 0 0 0 0.6 0 0 0 0 0.584314 0 0 0 1 0"/>
<feBlend mode="normal" in2="BackgroundImageFix" result="effect1_dropShadow_1_2"/>
<feBlend mode="normal" in="SourceGraphic" in2="effect1_dropShadow_1_2" result="shape"/>
</filter>
<filter id="filter3_d_1_2" x="155" y="290" width="142.5" height="173.428" filterUnits="userSpaceOnUse" color-interpolation-filters="sRGB">
<feFlood flood-opacity="0" result="BackgroundImageFix"/>
<feColorMatrix in="SourceAlpha" type="matrix" values="0 0 0 0 0 0 0 0 0 0 0 0 0 0 0 0 0 0 127 0" result="hardAlpha"/>
<feOffset dx="2" dy="2"/>
<feGaussianBlur stdDeviation="2"/>
<feComposite in2="hardAlpha" operator="out"/>
<feColorMatrix type="matrix" values="0 0 0 0 0 0 0 0 0 0 0 0 0 0 0 0 0 0 0.25 0"/>
<feBlend mode="normal" in2="BackgroundImageFix" result="effect1_dropShadow_1_2"/>
<feBlend mode="normal" in="SourceGraphic" in2="effect1_dropShadow_1_2" result="shape"/>
</filter>
</defs>
</svg>
